<?xml version="1.0" encoding="utf-8"?>
<!-- Generator: Adobe Illustrator 16.0.0, SVG Export Plug-In . SVG Version: 6.00 Build 0)  -->
<!DOCTYPE svg PUBLIC "-//W3C//DTD SVG 1.1//EN" "http://www.w3.org/Graphics/SVG/1.1/DTD/svg11.dtd">
<svg version="1.1" id="Layer_1" xmlns="http://www.w3.org/2000/svg" xmlns:xlink="http://www.w3.org/1999/xlink" x="0px" y="0px"
	 width="500px" height="200px" viewBox="0 0 500 200" enable-background="new 0 0 500 200" xml:space="preserve">
<g>
	<rect x="249.653" y="4.035" fill="none" stroke="#000000" stroke-width="0.1794" width="36.015" height="24.82"/>
	<g>
		<path d="M264.813,21.061h-1.147v-7.316c-0.276,0.264-0.64,0.529-1.088,0.793c-0.448,0.262-0.851,0.459-1.209,0.594v-1.113
			c0.643-0.301,1.204-0.664,1.685-1.096c0.479-0.428,0.82-0.846,1.021-1.25h0.739V21.061z"/>
		<path d="M267.753,18.611l1.205-0.102c0.09,0.588,0.297,1.027,0.622,1.322c0.325,0.297,0.718,0.443,1.177,0.443
			c0.554,0,1.02-0.207,1.403-0.625c0.383-0.416,0.574-0.969,0.574-1.656c0-0.656-0.184-1.172-0.553-1.551
			c-0.367-0.381-0.85-0.568-1.443-0.568c-0.371,0-0.704,0.082-1.001,0.254c-0.298,0.166-0.532,0.385-0.703,0.652l-1.077-0.141
			l0.906-4.803h4.648v1.096h-3.729l-0.505,2.514c0.561-0.391,1.15-0.586,1.766-0.586c0.817,0,1.506,0.283,2.066,0.848
			c0.563,0.568,0.842,1.293,0.842,2.182c0,0.846-0.245,1.576-0.738,2.193c-0.601,0.758-1.418,1.135-2.456,1.135
			c-0.85,0-1.544-0.236-2.083-0.713C268.137,20.027,267.829,19.396,267.753,18.611z"/>
	</g>
	<rect x="398.667" y="49.393" fill="none" stroke="#000000" stroke-width="0.1794" width="36.018" height="24.818"/>
	<g>
		<path d="M413.854,66.416h-1.149V59.1c-0.274,0.264-0.639,0.529-1.086,0.791c-0.451,0.266-0.852,0.463-1.209,0.594v-1.109
			c0.641-0.303,1.204-0.668,1.685-1.098c0.479-0.428,0.819-0.846,1.019-1.25h0.741V66.416z"/>
		<path d="M418.561,61.346c-0.476-0.174-0.828-0.422-1.059-0.746c-0.23-0.322-0.343-0.709-0.343-1.16
			c0-0.682,0.242-1.252,0.733-1.717c0.487-0.463,1.139-0.695,1.95-0.695c0.815,0,1.474,0.238,1.97,0.711
			c0.498,0.475,0.748,1.051,0.748,1.732c0,0.434-0.115,0.811-0.343,1.131c-0.228,0.322-0.573,0.57-1.036,0.744
			c0.576,0.188,1.012,0.49,1.312,0.906s0.448,0.914,0.448,1.492c0,0.799-0.283,1.471-0.846,2.016
			c-0.565,0.543-1.313,0.814-2.233,0.814c-0.924,0-1.668-0.271-2.233-0.818s-0.848-1.229-0.848-2.045
			c0-0.607,0.155-1.115,0.463-1.527C417.552,61.773,417.99,61.494,418.561,61.346z M417.962,63.719c0,0.326,0.077,0.643,0.232,0.949
			c0.156,0.307,0.386,0.543,0.691,0.711s0.637,0.252,0.989,0.252c0.548,0,1.001-0.176,1.359-0.529
			c0.354-0.352,0.536-0.801,0.536-1.346c0-0.551-0.187-1.01-0.554-1.371c-0.368-0.359-0.829-0.543-1.38-0.543
			c-0.541,0-0.988,0.18-1.344,0.537C418.137,62.736,417.962,63.182,417.962,63.719z M418.33,59.4c0,0.441,0.143,0.805,0.428,1.084
			c0.286,0.281,0.656,0.42,1.109,0.42c0.443,0,0.806-0.139,1.09-0.416c0.282-0.279,0.423-0.619,0.423-1.023
			c0-0.422-0.146-0.775-0.437-1.063c-0.293-0.287-0.653-0.432-1.088-0.432c-0.438,0-0.802,0.143-1.09,0.422
			C418.475,58.674,418.33,59.01,418.33,59.4z"/>
	</g>
	<rect x="159.183" y="48.48" fill="none" stroke="#000000" stroke-width="0.1794" width="36.016" height="24.822"/>
	<g>
		<path d="M174.164,57.379v-1.102h6.053v0.891c-0.596,0.635-1.186,1.479-1.77,2.527c-0.585,1.051-1.036,2.131-1.355,3.238
			c-0.23,0.783-0.377,1.641-0.44,2.57h-1.18c0.013-0.734,0.156-1.623,0.434-2.664c0.276-1.043,0.673-2.047,1.188-3.014
			c0.517-0.967,1.066-1.783,1.649-2.447H174.164z"/>
	</g>
	<rect x="209.18" y="87.857" fill="none" stroke="#000000" stroke-width="0.1794" width="36.016" height="24.82"/>
	<g>
		<path d="M224.423,104.961h-1.148v-7.314c-0.275,0.264-0.638,0.527-1.087,0.791c-0.449,0.262-0.852,0.461-1.209,0.594V97.92
			c0.642-0.301,1.203-0.668,1.684-1.098c0.481-0.428,0.82-0.846,1.021-1.248h0.739V104.961z"/>
		<path d="M233.396,103.857v1.104h-6.181c-0.008-0.275,0.036-0.541,0.135-0.797c0.157-0.42,0.409-0.836,0.756-1.244
			c0.346-0.406,0.847-0.881,1.502-1.416c1.016-0.834,1.702-1.492,2.06-1.98c0.357-0.484,0.535-0.945,0.535-1.379
			c0-0.455-0.162-0.84-0.487-1.152s-0.749-0.467-1.272-0.467c-0.553,0-0.995,0.164-1.326,0.494c-0.332,0.334-0.5,0.793-0.504,1.379
			l-1.181-0.121c0.081-0.879,0.385-1.551,0.913-2.014c0.526-0.459,1.234-0.689,2.123-0.689c0.897,0,1.607,0.246,2.13,0.746
			c0.523,0.498,0.785,1.113,0.785,1.85c0,0.373-0.077,0.74-0.229,1.104c-0.153,0.361-0.407,0.742-0.763,1.141
			c-0.354,0.398-0.945,0.947-1.77,1.646c-0.688,0.578-1.131,0.971-1.327,1.176c-0.194,0.205-0.357,0.412-0.483,0.621H233.396z"/>
	</g>
	<rect x="96.163" y="81.84" fill="none" stroke="#000000" stroke-width="0.1794" width="36.016" height="24.82"/>
	<g>
		<path d="M114.993,98.926v-2.24h-4.056v-1.053l4.267-6.057h0.938v6.057h1.263v1.053h-1.263v2.24H114.993z M114.993,95.633v-4.215
			l-2.927,4.215H114.993z"/>
	</g>
	<rect x="191.839" y="130.561" fill="none" stroke="#000000" stroke-width="0.1794" width="36.017" height="24.818"/>
	<g>
		<path d="M206.945,145.424l1.103-0.104c0.094,0.518,0.272,0.895,0.537,1.129c0.263,0.232,0.601,0.352,1.014,0.352
			c0.353,0,0.662-0.08,0.928-0.244c0.266-0.16,0.484-0.377,0.653-0.648c0.17-0.268,0.313-0.633,0.428-1.092s0.171-0.928,0.171-1.402
			c0-0.051,0-0.129-0.006-0.23c-0.229,0.365-0.543,0.662-0.939,0.891c-0.398,0.227-0.829,0.34-1.292,0.34
			c-0.773,0-1.43-0.279-1.965-0.842c-0.536-0.563-0.804-1.301-0.804-2.219c0-0.949,0.28-1.713,0.839-2.291s1.26-0.865,2.102-0.865
			c0.607,0,1.163,0.162,1.668,0.49c0.503,0.328,0.886,0.793,1.147,1.398c0.262,0.607,0.394,1.484,0.394,2.631
			c0,1.197-0.131,2.148-0.39,2.854c-0.26,0.709-0.646,1.25-1.158,1.617c-0.513,0.371-1.112,0.557-1.802,0.557
			c-0.731,0-1.328-0.203-1.792-0.609C207.317,146.729,207.039,146.156,206.945,145.424z M211.645,141.295
			c0-0.658-0.175-1.182-0.525-1.568s-0.772-0.578-1.266-0.578c-0.511,0-0.954,0.207-1.332,0.623
			c-0.38,0.418-0.569,0.955-0.569,1.619c0,0.596,0.181,1.08,0.54,1.451c0.359,0.373,0.802,0.559,1.329,0.559
			c0.532,0,0.969-0.186,1.311-0.559C211.475,142.471,211.645,141.953,211.645,141.295z"/>
	</g>
	<rect x="266.668" y="128.867" fill="none" stroke="#000000" stroke-width="0.1794" width="36.013" height="24.822"/>
	<g>
		<path d="M281.861,145.889h-1.146v-7.314c-0.278,0.262-0.641,0.529-1.089,0.791c-0.448,0.264-0.852,0.461-1.21,0.594v-1.111
			c0.645-0.301,1.205-0.666,1.686-1.098c0.48-0.428,0.821-0.846,1.021-1.248h0.738V145.889z"/>
		<path d="M284.808,143.422l1.149-0.154c0.132,0.65,0.354,1.119,0.673,1.406c0.315,0.289,0.701,0.432,1.156,0.432
			c0.541,0,0.997-0.188,1.37-0.561c0.37-0.375,0.558-0.838,0.558-1.393c0-0.525-0.173-0.961-0.519-1.303
			c-0.343-0.342-0.781-0.514-1.314-0.514c-0.215,0-0.484,0.041-0.809,0.127l0.129-1.006c0.074,0.008,0.138,0.012,0.185,0.012
			c0.488,0,0.929-0.127,1.319-0.383c0.391-0.254,0.586-0.648,0.586-1.182c0-0.42-0.141-0.768-0.426-1.043
			c-0.285-0.277-0.653-0.416-1.104-0.416c-0.446,0-0.819,0.141-1.117,0.42c-0.298,0.281-0.488,0.701-0.573,1.264l-1.149-0.203
			c0.141-0.77,0.462-1.367,0.957-1.791c0.498-0.422,1.116-0.633,1.856-0.633c0.512,0,0.979,0.109,1.41,0.328
			c0.428,0.221,0.759,0.518,0.983,0.896c0.229,0.377,0.343,0.779,0.343,1.205c0,0.404-0.109,0.771-0.325,1.102
			c-0.217,0.334-0.538,0.596-0.964,0.791c0.554,0.129,0.984,0.395,1.289,0.793c0.306,0.404,0.459,0.906,0.459,1.51
			c0,0.816-0.298,1.51-0.892,2.076c-0.596,0.568-1.349,0.852-2.258,0.852c-0.82,0-1.502-0.244-2.045-0.734
			C285.196,144.832,284.885,144.199,284.808,143.422z"/>
	</g>
	<rect x="228.194" y="171.141" fill="none" stroke="#000000" stroke-width="0.1794" width="36.017" height="24.824"/>
	<g>
		<path d="M243.406,188.168h-1.147v-7.316c-0.276,0.264-0.64,0.527-1.087,0.791c-0.45,0.264-0.853,0.461-1.21,0.594v-1.111
			c0.642-0.301,1.204-0.666,1.686-1.096c0.479-0.43,0.818-0.846,1.019-1.25h0.74V188.168z"/>
		<path d="M246.346,183.557c0-1.105,0.114-1.994,0.342-2.67c0.227-0.674,0.564-1.193,1.015-1.561
			c0.448-0.365,1.013-0.547,1.693-0.547c0.502,0,0.941,0.102,1.32,0.303c0.378,0.203,0.691,0.492,0.937,0.873
			c0.247,0.381,0.439,0.846,0.58,1.391c0.14,0.547,0.212,1.283,0.212,2.211c0,1.096-0.114,1.982-0.339,2.654
			c-0.226,0.676-0.563,1.195-1.011,1.564c-0.448,0.367-1.015,0.551-1.699,0.551c-0.901,0-1.61-0.322-2.124-0.969
			C246.654,186.58,246.346,185.313,246.346,183.557z M247.527,183.557c0,1.535,0.179,2.557,0.537,3.064
			c0.359,0.508,0.805,0.762,1.331,0.762c0.527,0,0.97-0.256,1.329-0.766c0.358-0.51,0.54-1.529,0.54-3.061
			c0-1.539-0.182-2.563-0.54-3.068c-0.359-0.506-0.806-0.758-1.342-0.758c-0.528,0-0.948,0.223-1.263,0.67
			C247.725,180.969,247.527,182.021,247.527,183.557z"/>
	</g>
	<rect x="171.548" y="170.295" fill="none" stroke="#000000" stroke-width="0.1794" width="36.017" height="24.822"/>
	<g>
		<path d="M188.255,182.25c-0.477-0.174-0.83-0.422-1.059-0.744c-0.229-0.324-0.345-0.711-0.345-1.162
			c0-0.68,0.244-1.252,0.733-1.715c0.488-0.465,1.139-0.697,1.951-0.697c0.816,0,1.474,0.238,1.972,0.713
			c0.497,0.475,0.746,1.051,0.746,1.73c0,0.434-0.114,0.811-0.342,1.133c-0.229,0.32-0.573,0.568-1.036,0.742
			c0.574,0.188,1.011,0.49,1.31,0.906c0.301,0.418,0.451,0.914,0.451,1.492c0,0.801-0.283,1.471-0.849,2.016
			s-1.311,0.816-2.233,0.816c-0.922,0-1.665-0.273-2.23-0.818c-0.566-0.549-0.85-1.229-0.85-2.045c0-0.607,0.154-1.117,0.464-1.527
			C187.246,182.678,187.685,182.4,188.255,182.25z M187.655,184.625c0,0.326,0.077,0.643,0.232,0.949
			c0.155,0.305,0.386,0.543,0.692,0.711c0.306,0.166,0.636,0.252,0.989,0.252c0.548,0,1.001-0.178,1.357-0.529
			c0.356-0.354,0.536-0.803,0.536-1.346c0-0.553-0.185-1.01-0.552-1.371c-0.368-0.361-0.828-0.543-1.381-0.543
			c-0.539,0-0.987,0.178-1.344,0.535C187.833,183.641,187.655,184.088,187.655,184.625z M188.024,180.307
			c0,0.441,0.143,0.803,0.428,1.082c0.284,0.281,0.655,0.422,1.109,0.422c0.442,0,0.805-0.139,1.088-0.418
			c0.282-0.277,0.424-0.619,0.424-1.023c0-0.422-0.146-0.773-0.437-1.063c-0.292-0.285-0.653-0.43-1.088-0.43
			c-0.438,0-0.801,0.141-1.09,0.422C188.17,179.578,188.024,179.914,188.024,180.307z"/>
	</g>
	<rect x="295.835" y="169.875" fill="none" stroke="#000000" stroke-width="0.1794" width="36.018" height="24.818"/>
	<g>
		<path d="M311.051,186.979h-1.148v-7.316c-0.275,0.266-0.638,0.529-1.086,0.791c-0.451,0.266-0.852,0.463-1.21,0.594v-1.109
			c0.642-0.303,1.204-0.668,1.686-1.096c0.478-0.432,0.818-0.846,1.019-1.252h0.74V186.979z"/>
		<path d="M317.67,186.979v-2.24h-4.055v-1.051l4.266-6.057h0.938v6.057h1.262v1.051h-1.262v2.24H317.67z M317.67,183.688v-4.215
			l-2.927,4.215H317.67z"/>
	</g>
	<rect x="131.745" y="128.119" fill="none" stroke="#000000" stroke-width="0.1794" width="36.017" height="24.822"/>
	<g>
		<path d="M152.675,138.084l-1.142,0.092c-0.103-0.453-0.247-0.779-0.435-0.982c-0.311-0.328-0.693-0.492-1.147-0.492
			c-0.365,0-0.687,0.102-0.964,0.307c-0.36,0.264-0.646,0.648-0.854,1.154c-0.209,0.506-0.317,1.227-0.325,2.162
			c0.276-0.422,0.614-0.732,1.014-0.938s0.818-0.307,1.257-0.307c0.765,0,1.417,0.281,1.955,0.846
			c0.537,0.563,0.806,1.291,0.806,2.184c0,0.586-0.126,1.133-0.379,1.637c-0.253,0.502-0.601,0.889-1.043,1.156
			s-0.943,0.402-1.506,0.402c-0.956,0-1.735-0.352-2.34-1.057c-0.604-0.703-0.905-1.863-0.905-3.479
			c0-1.807,0.333-3.121,1.002-3.941c0.582-0.713,1.366-1.07,2.353-1.07c0.736,0,1.338,0.205,1.808,0.619
			C152.299,136.787,152.581,137.357,152.675,138.084z M147.986,142.117c0,0.395,0.084,0.773,0.253,1.135
			c0.168,0.361,0.401,0.635,0.705,0.824c0.301,0.191,0.618,0.285,0.949,0.285c0.484,0,0.901-0.195,1.251-0.588
			c0.348-0.391,0.523-0.922,0.523-1.594c0-0.646-0.173-1.156-0.518-1.527c-0.344-0.373-0.778-0.559-1.302-0.559
			c-0.519,0-0.959,0.186-1.319,0.559C148.168,141.023,147.986,141.512,147.986,142.117z"/>
	</g>
	<rect x="104.243" y="170.566" fill="none" stroke="#000000" stroke-width="0.1794" width="36.017" height="24.822"/>
	<g>
		<path d="M119.152,185.061l1.205-0.102c0.09,0.586,0.297,1.027,0.622,1.322s0.718,0.443,1.177,0.443
			c0.553,0,1.021-0.209,1.402-0.623c0.383-0.418,0.575-0.973,0.575-1.66c0-0.654-0.185-1.172-0.552-1.549
			c-0.368-0.379-0.85-0.568-1.444-0.568c-0.37,0-0.705,0.084-1.002,0.252c-0.298,0.168-0.531,0.385-0.701,0.654l-1.078-0.141
			l0.906-4.801h4.648v1.096h-3.73l-0.504,2.514c0.562-0.393,1.15-0.588,1.767-0.588c0.816,0,1.505,0.281,2.066,0.848
			c0.562,0.564,0.842,1.295,0.842,2.182c0,0.848-0.247,1.578-0.74,2.195c-0.599,0.754-1.418,1.133-2.455,1.133
			c-0.851,0-1.545-0.238-2.082-0.713C119.536,186.479,119.229,185.848,119.152,185.061z"/>
	</g>
	<rect x="46.254" y="126.328" fill="none" stroke="#000000" stroke-width="0.1794" width="36.014" height="24.816"/>
	<g>
		<path d="M67.352,142.328v1.102h-6.18c-0.01-0.275,0.035-0.541,0.134-0.797c0.157-0.42,0.409-0.834,0.756-1.244
			c0.346-0.406,0.847-0.879,1.502-1.414c1.016-0.834,1.703-1.494,2.06-1.98c0.357-0.488,0.535-0.947,0.535-1.381
			c0-0.457-0.162-0.84-0.487-1.152s-0.75-0.467-1.272-0.467c-0.553,0-0.994,0.164-1.326,0.496s-0.5,0.791-0.504,1.379l-1.181-0.123
			c0.081-0.879,0.386-1.549,0.913-2.012c0.526-0.461,1.234-0.691,2.123-0.691c0.897,0,1.607,0.248,2.13,0.746
			c0.523,0.498,0.785,1.115,0.785,1.85c0,0.375-0.077,0.742-0.229,1.104c-0.153,0.361-0.407,0.742-0.763,1.141
			c-0.354,0.4-0.944,0.949-1.77,1.646c-0.689,0.578-1.131,0.971-1.327,1.176c-0.195,0.205-0.356,0.414-0.484,0.623H67.352z"/>
	</g>
	<rect x="5" y="168.176" fill="none" stroke="#000000" stroke-width="0.1794" width="36.017" height="24.82"/>
	<g>
		<path d="M24.73,185.279h-1.148v-7.314c-0.276,0.264-0.639,0.529-1.087,0.791c-0.449,0.264-0.853,0.461-1.209,0.594v-1.111
			c0.642-0.301,1.203-0.666,1.684-1.096s0.82-0.846,1.021-1.25h0.739V185.279z"/>
	</g>
	<rect x="55.222" y="169.969" fill="none" stroke="#000000" stroke-width="0.1794" width="36.014" height="24.82"/>
	<g>
		<path d="M70.167,184.523l1.148-0.154c0.131,0.65,0.355,1.121,0.673,1.406c0.316,0.289,0.702,0.432,1.157,0.432
			c0.54,0,0.996-0.188,1.368-0.563c0.372-0.373,0.558-0.836,0.558-1.391c0-0.527-0.172-0.963-0.516-1.303
			c-0.345-0.342-0.783-0.514-1.314-0.514c-0.217,0-0.486,0.043-0.811,0.127l0.128-1.006c0.076,0.008,0.139,0.012,0.186,0.012
			c0.488,0,0.929-0.129,1.319-0.385c0.392-0.254,0.588-0.646,0.588-1.18c0-0.42-0.143-0.768-0.428-1.045
			c-0.285-0.275-0.652-0.414-1.104-0.414c-0.446,0-0.818,0.141-1.116,0.422c-0.297,0.279-0.489,0.699-0.574,1.262l-1.147-0.203
			c0.14-0.77,0.459-1.367,0.957-1.791c0.496-0.422,1.115-0.635,1.855-0.635c0.51,0,0.979,0.111,1.409,0.33s0.758,0.518,0.985,0.896
			c0.228,0.377,0.341,0.779,0.341,1.205c0,0.402-0.107,0.77-0.325,1.104c-0.217,0.332-0.537,0.594-0.962,0.789
			c0.552,0.129,0.981,0.393,1.287,0.795c0.307,0.402,0.46,0.904,0.46,1.51c0,0.814-0.298,1.508-0.894,2.074
			c-0.595,0.568-1.348,0.852-2.257,0.852c-0.821,0-1.502-0.244-2.045-0.734C70.553,185.934,70.244,185.301,70.167,184.523z"/>
	</g>
	<rect x="458.984" y="87.619" fill="none" stroke="#000000" stroke-width="0.1794" width="36.016" height="24.822"/>
	<g>
		<path d="M474.17,104.645h-1.146v-7.316c-0.278,0.264-0.641,0.529-1.089,0.791c-0.447,0.266-0.851,0.463-1.208,0.594v-1.111
			c0.643-0.301,1.203-0.666,1.684-1.096s0.821-0.846,1.021-1.25h0.738V104.645z"/>
		<path d="M477.283,102.482l1.102-0.104c0.096,0.52,0.273,0.896,0.536,1.131c0.266,0.234,0.604,0.35,1.014,0.35
			c0.354,0,0.664-0.08,0.93-0.242c0.265-0.16,0.483-0.377,0.652-0.648c0.171-0.268,0.313-0.635,0.429-1.092
			c0.115-0.459,0.172-0.928,0.172-1.404c0-0.051-0.002-0.127-0.007-0.229c-0.229,0.365-0.543,0.662-0.941,0.889
			c-0.395,0.229-0.825,0.34-1.289,0.34c-0.776,0-1.43-0.279-1.965-0.84c-0.536-0.563-0.804-1.301-0.804-2.219
			c0-0.949,0.277-1.713,0.839-2.291c0.558-0.578,1.259-0.867,2.101-0.867c0.607,0,1.163,0.164,1.669,0.492
			c0.503,0.326,0.886,0.793,1.146,1.398c0.263,0.605,0.394,1.484,0.394,2.631c0,1.195-0.131,2.146-0.391,2.854
			c-0.259,0.709-0.644,1.248-1.157,1.617c-0.513,0.371-1.113,0.555-1.802,0.555c-0.731,0-1.33-0.203-1.793-0.607
			C477.655,103.789,477.377,103.217,477.283,102.482z M481.982,98.355c0-0.658-0.175-1.182-0.525-1.568s-0.774-0.58-1.267-0.58
			c-0.509,0-0.953,0.207-1.331,0.625c-0.379,0.416-0.569,0.955-0.569,1.619c0,0.596,0.181,1.078,0.538,1.451
			c0.361,0.373,0.804,0.557,1.332,0.557c0.53,0,0.966-0.184,1.31-0.557C481.813,99.529,481.982,99.016,481.982,98.355z"/>
	</g>
	<rect x="360.938" y="87.619" fill="none" stroke="#000000" stroke-width="0.1794" width="36.017" height="24.822"/>
	<g>
		<path d="M376.134,104.723h-1.147v-7.314c-0.276,0.264-0.639,0.529-1.087,0.791c-0.45,0.264-0.852,0.461-1.21,0.594v-1.111
			c0.643-0.301,1.204-0.666,1.686-1.098c0.479-0.428,0.819-0.846,1.02-1.248h0.739V104.723z"/>
		<path d="M379.15,96.598v-1.102h6.054v0.893c-0.597,0.631-1.187,1.477-1.77,2.525c-0.585,1.051-1.037,2.129-1.356,3.238
			c-0.229,0.783-0.375,1.641-0.439,2.57h-1.18c0.013-0.734,0.158-1.625,0.433-2.666c0.276-1.041,0.674-2.045,1.19-3.014
			c0.516-0.967,1.065-1.783,1.648-2.445H379.15z"/>
	</g>
	<rect x="325.665" y="128.869" fill="none" stroke="#000000" stroke-width="0.1794" width="36.014" height="24.822"/>
	<g>
		<path d="M340.862,145.895h-1.146v-7.314c-0.277,0.264-0.641,0.527-1.089,0.789c-0.448,0.266-0.851,0.463-1.209,0.594v-1.109
			c0.644-0.303,1.204-0.668,1.685-1.096c0.48-0.43,0.821-0.846,1.021-1.252h0.738V145.895z"/>
		<path d="M349.759,138.834l-1.142,0.092c-0.101-0.453-0.245-0.779-0.433-0.984c-0.311-0.326-0.693-0.492-1.146-0.492
			c-0.368,0-0.688,0.104-0.964,0.309c-0.363,0.264-0.646,0.646-0.856,1.152c-0.207,0.508-0.314,1.227-0.325,2.164
			c0.277-0.422,0.615-0.734,1.017-0.938c0.397-0.203,0.818-0.307,1.257-0.307c0.764,0,1.416,0.281,1.952,0.844
			c0.538,0.564,0.809,1.293,0.809,2.184c0,0.588-0.127,1.135-0.38,1.639c-0.254,0.504-0.602,0.889-1.042,1.156
			c-0.443,0.268-0.946,0.402-1.507,0.402c-0.956,0-1.737-0.352-2.341-1.055c-0.603-0.705-0.906-1.865-0.906-3.48
			c0-1.807,0.336-3.119,1.002-3.941c0.583-0.713,1.368-1.072,2.355-1.072c0.732,0,1.337,0.207,1.807,0.621
			C349.386,137.539,349.666,138.107,349.759,138.834z M345.072,142.865c0,0.396,0.084,0.773,0.251,1.137
			c0.171,0.359,0.403,0.635,0.706,0.824s0.618,0.283,0.95,0.283c0.483,0,0.902-0.195,1.25-0.586s0.522-0.922,0.522-1.594
			c0-0.646-0.172-1.156-0.515-1.527c-0.346-0.371-0.779-0.559-1.303-0.559c-0.518,0-0.958,0.188-1.321,0.559
			C345.254,141.773,345.072,142.262,345.072,142.865z"/>
	</g>
	<line fill="none" stroke="#000000" stroke-width="0.4665" x1="249.653" y1="25.289" x2="195.199" y2="52.045"/>
	<line fill="none" stroke="#000000" stroke-width="0.4665" x1="192.948" y1="73.303" x2="211.431" y2="87.857"/>
	<line fill="none" stroke="#000000" stroke-width="0.4665" x1="222.148" y1="112.678" x2="214.887" y2="130.561"/>
	<line fill="none" stroke="#000000" stroke-width="0.4665" x1="244.583" y1="112.678" x2="267.276" y2="128.867"/>
	<line fill="none" stroke="#000000" stroke-width="0.4665" x1="159.183" y1="70.426" x2="132.181" y2="84.719"/>
	<line fill="none" stroke="#000000" stroke-width="0.4665" x1="123.712" y1="106.66" x2="140.211" y2="128.117"/>
	<line fill="none" stroke="#000000" stroke-width="0.4665" x1="100.246" y1="106.66" x2="78.184" y2="126.326"/>
	<line fill="none" stroke="#000000" stroke-width="0.4665" x1="52.029" y1="151.145" x2="35.243" y2="168.176"/>
	<line fill="none" stroke="#000000" stroke-width="0.4665" x1="66.812" y1="151.145" x2="70.68" y2="169.969"/>
	<line fill="none" stroke="#000000" stroke-width="0.4665" x1="141.715" y1="152.941" x2="130.293" y2="170.566"/>
	<line fill="none" stroke="#000000" stroke-width="0.4665" x1="203.51" y1="155.379" x2="195.894" y2="170.295"/>
	<line fill="none" stroke="#000000" stroke-width="0.4665" x1="220.967" y1="155.379" x2="235.087" y2="171.141"/>
	<line fill="none" stroke="#000000" stroke-width="0.4665" x1="293.503" y1="153.689" x2="305.016" y2="169.875"/>
	<line fill="none" stroke="#000000" stroke-width="0.4665" x1="368.337" y1="112.441" x2="354.285" y2="128.869"/>
	<line fill="none" stroke="#000000" stroke-width="0.4665" x1="404.425" y1="74.211" x2="391.194" y2="87.619"/>
	<line fill="none" stroke="#000000" stroke-width="0.4665" x1="434.683" y1="73.215" x2="458.984" y2="88.617"/>
	<line fill="none" stroke="#000000" stroke-width="0.4665" x1="285.666" y1="21.926" x2="398.667" y2="56.318"/>
</g>
</svg>
